<?xml version="1.0" encoding="UTF-8"?>
<svg width="126px" height="95px" viewBox="0 0 126 95" version="1.1" xmlns="http://www.w3.org/2000/svg" xmlns:xlink="http://www.w3.org/1999/xlink">
    <!-- Generator: sketchtool 53.1 (72631) - https://sketchapp.com -->
    <title>6A322F75-6E27-40B9-85E9-790401B53C4B</title>
    <desc>Created with sketchtool.</desc>
    <g id="Login" stroke="none" stroke-width="1" fill="none" fill-rule="evenodd">
        <g id="Login-1.1" transform="translate(-212.000000, -70.000000)">
            <g id="logo" transform="translate(212.000000, 70.000000)">
                <path d="M20.7613636,51.0984848 C16.9431818,46.3005051 15.2679545,39.7032828 15.7356818,31.3068182 C15.75,30.9469697 15.75,26.6287879 18.1482955,20.425 C19.7471591,16.2891414 21.5727273,11.160101 23.625,5.03787879 L32.9318182,10.0757576 L31.5,47.5 C50.1136364,54.6969697 59.4204545,58.2954545 59.4204545,58.2954545 C59.4204545,58.2954545 68.9659091,55.1767677 88.0568182,48.9393939 L89.4886364,57.5757576 C68.9659091,66.2121212 58.7045455,70.530303 58.7045455,70.530303 C58.7045455,70.530303 49.875,69.3308081 32.2159091,66.9318182 L20.7613636,51.0984848 Z" id="Path-2" fill="#FFFFFF"></path>
                <g id="logo-bicolor-copy-2">
                    <g id="logo-bicolor-copy">
                        <path d="M124.120309,92.0080758 C124.120309,92.4542879 124.476116,92.8119773 124.919264,92.8119773 C125.363127,92.8119773 125.728957,92.4542879 125.728957,92.0080758 C125.728957,91.5618636 125.363127,91.1948182 124.919264,91.1948182 C124.476116,91.1948182 124.120309,91.5618636 124.120309,92.0080758 L124.120309,92.0080758 Z M122.304764,91.0659924 C122.145832,91.5424318 121.791457,91.9087576 121.099889,91.9087576 C120.390423,91.9087576 119.81698,91.3826591 119.787627,90.6492879 L123.300593,90.6492879 C123.311332,90.6291364 123.329945,90.470803 123.329945,90.2822424 C123.329945,88.7543258 122.462264,87.7719394 120.981764,87.7719394 C119.768298,87.7719394 118.643605,88.784553 118.643605,90.3124697 C118.643605,91.9483409 119.798366,92.9012197 121.099889,92.9012197 C122.255366,92.9012197 123.014945,92.2167879 123.271241,91.373303 L122.304764,91.0659924 Z M119.81698,89.805803 C119.85707,89.2905 120.271582,88.7341742 120.992502,88.7341742 C121.780718,88.7341742 122.15657,89.2401212 122.1759,89.805803 L119.81698,89.805803 Z M116.58107,92.2167879 C116.58107,92.4147045 116.601116,92.6428485 116.61973,92.7522424 L117.715786,92.7522424 C117.695741,92.5737576 117.665673,92.2657273 117.665673,91.8698939 L117.665673,87.9209167 L116.52165,87.9209167 L116.52165,90.7781136 C116.52165,91.4128864 116.175866,91.8590985 115.514366,91.8590985 C114.82423,91.8590985 114.548605,91.3531515 114.548605,90.7586818 L114.548605,87.9209167 L113.402434,87.9209167 L113.402434,90.9659545 C113.402434,92.0375833 114.074673,92.8918636 115.218695,92.8918636 C115.7814,92.8918636 116.344105,92.6529242 116.58107,92.2167879 L116.58107,92.2167879 Z M108.449059,90.3218258 C108.449059,89.3991742 108.973105,88.8234167 109.731968,88.8234167 C110.481525,88.8234167 111.025616,89.3991742 111.025616,90.3218258 C111.025616,91.2444773 110.481525,91.8590985 109.731968,91.8590985 C108.981695,91.8590985 108.449059,91.2444773 108.449059,90.3218258 L108.449059,90.3218258 Z M112.140286,94.6371288 L112.140286,87.9209167 L111.04423,87.9209167 L111.04423,88.5657652 C110.877423,88.2181515 110.413514,87.8021667 109.575184,87.8021667 C108.173434,87.8021667 107.295014,88.9335303 107.295014,90.3218258 C107.295014,91.7605 108.232855,92.8709924 109.604536,92.8709924 C110.274627,92.8709924 110.777911,92.6032652 111.014877,92.1764848 L111.014877,94.6371288 L112.140286,94.6371288 Z M103.249411,89.9648561 C103.249411,89.3293636 103.59448,88.8234167 104.245241,88.8234167 C104.966161,88.8234167 105.23248,89.2998561 105.23248,89.8950455 L105.23248,92.7522424 L106.377218,92.7522424 L106.377218,89.6964091 C106.377218,88.6348561 105.81523,87.7820152 104.640423,87.7820152 C104.107786,87.7820152 103.535775,88.0101591 103.219343,88.5657652 L103.219343,87.9209167 L102.104673,87.9209167 L102.104673,92.7522424 L103.249411,92.7522424 L103.249411,89.9648561 Z M98.5029341,91.998 C98.0490477,91.998 97.8013432,91.7007652 97.8013432,91.373303 C97.8013432,90.9760303 98.0884227,90.7781136 98.4435136,90.7183788 L99.6963545,90.5298182 L99.6963545,90.7478864 C99.6963545,91.6914091 99.1436727,91.998 98.5029341,91.998 L98.5029341,91.998 Z M96.6573205,91.4423939 C96.6573205,92.2067121 97.2787295,92.9012197 98.2860136,92.9012197 C99.0649227,92.9012197 99.5388545,92.503947 99.7650818,92.1376212 C99.7650818,92.5240985 99.8044568,92.7227348 99.8151955,92.7522424 L100.881184,92.7522424 C100.870445,92.7025833 100.821764,92.4147045 100.821764,91.9785682 L100.821764,89.5776591 C100.821764,88.6154242 100.259059,87.7719394 98.779275,87.7719394 C97.5944455,87.7719394 96.8441727,88.5161061 96.7554,89.3502348 L97.8013432,89.5870152 C97.8514568,89.1012197 98.1865023,88.7147424 98.7885818,88.7147424 C99.4207295,88.7147424 99.6963545,89.0422045 99.6963545,89.4488333 C99.6963545,89.6172424 99.6168886,89.7561439 99.3412636,89.7957273 L98.1084682,89.9842879 C97.2887523,90.1037576 96.6573205,90.580197 96.6573205,91.4423939 L96.6573205,91.4423939 Z M94.7916614,90.3218258 C94.7916614,91.2739848 94.2490023,91.8497424 93.4994455,91.8497424 C92.7692182,91.8497424 92.2072295,91.2739848 92.2072295,90.3218258 C92.2072295,89.3595909 92.7692182,88.8140606 93.4994455,88.8140606 C94.2597409,88.8140606 94.7916614,89.3595909 94.7916614,90.3218258 L94.7916614,90.3218258 Z M92.2072295,92.7522424 L92.2072295,92.1081136 C92.4835705,92.5737576 93.0061841,92.8709924 93.6862977,92.8709924 C95.0880477,92.8709924 95.9464227,91.7698561 95.9464227,90.3124697 C95.9464227,88.8932273 95.1675136,87.7928106 93.7271045,87.7928106 C92.9868545,87.7928106 92.4334568,88.1389848 92.2165364,88.5161061 L92.2165364,85.5703864 L91.0911273,85.5703864 L91.0911273,92.7522424 L92.2072295,92.7522424 Z M85.1412068,91.998 C84.6873205,91.998 84.4403318,91.7007652 84.4403318,91.373303 C84.4403318,90.9760303 84.7266955,90.7781136 85.0825023,90.7183788 L86.3353432,90.5298182 L86.3353432,90.7478864 C86.3353432,91.6914091 85.7826614,91.998 85.1412068,91.998 L85.1412068,91.998 Z M83.2963091,91.4423939 C83.2963091,92.2067121 83.9177182,92.9012197 84.9242864,92.9012197 C85.7039114,92.9012197 86.1778432,92.503947 86.4040705,92.1376212 C86.4040705,92.5240985 86.4441614,92.7227348 86.4541841,92.7522424 L87.5194568,92.7522424 C87.5094341,92.7025833 87.4607523,92.4147045 87.4607523,91.9785682 L87.4607523,89.5776591 C87.4607523,88.6154242 86.8980477,87.7719394 85.4168318,87.7719394 C84.2334341,87.7719394 83.4831614,88.5161061 83.3943886,89.3502348 L84.4403318,89.5870152 C84.4904455,89.1012197 84.8254909,88.7147424 85.4268545,88.7147424 C86.0590023,88.7147424 86.3353432,89.0422045 86.3353432,89.4488333 C86.3353432,89.6172424 86.2558773,89.7561439 85.9802523,89.7957273 L84.7467409,89.9842879 C83.927025,90.1037576 83.2963091,90.580197 83.2963091,91.4423939 L83.2963091,91.4423939 Z M82.1408318,92.7522424 L82.1408318,85.7186439 L80.5321841,85.7186439 L78.2921045,91.0854242 L76.0226727,85.7186439 L74.4433773,85.7186439 L74.4433773,92.7522424 L75.5988545,92.7522424 L75.5988545,87.5934545 L77.7594682,92.7522424 L78.7860818,92.7522424 L80.9674568,87.5740227 L80.9674568,92.7522424 L82.1408318,92.7522424 Z M69.0962523,92.0080758 C69.0962523,92.4542879 69.4513432,92.8119773 69.8952068,92.8119773 C70.3390705,92.8119773 70.7049,92.4542879 70.7049,92.0080758 C70.7049,91.5618636 70.3390705,91.1948182 69.8952068,91.1948182 C69.4513432,91.1948182 69.0962523,91.5618636 69.0962523,92.0080758 L69.0962523,92.0080758 Z M67.2799909,91.0659924 C67.1224909,91.5424318 66.7674,91.9087576 66.0765477,91.9087576 C65.36565,91.9087576 64.7936386,91.3826591 64.7635705,90.6492879 L68.2772523,90.6492879 C68.2865591,90.6291364 68.3066045,90.470803 68.3066045,90.2822424 C68.3066045,88.7543258 67.4374909,87.7719394 65.9577068,87.7719394 C64.7442409,87.7719394 63.6188318,88.784553 63.6188318,90.3124697 C63.6188318,91.9483409 64.7735932,92.9012197 66.0765477,92.9012197 C67.2305932,92.9012197 67.9908886,92.2167879 68.2471841,91.373303 L67.2799909,91.0659924 Z M64.7936386,89.805803 C64.8330136,89.2905 65.247525,88.7341742 65.9677295,88.7341742 C66.7573773,88.7341742 67.1317977,89.2401212 67.1518432,89.805803 L64.7936386,89.805803 Z M61.467525,92.7522424 L62.6129795,92.7522424 L62.6129795,85.5703864 L61.467525,85.5703864 L61.467525,92.7522424 Z M58.9417977,92.7522424 L60.0865364,92.7522424 L60.0865364,85.5703864 L58.9417977,85.5703864 L58.9417977,92.7522424 Z M56.2471159,86.2245909 C56.2471159,86.6412955 56.5835932,86.9687576 56.9880818,86.9687576 C57.4025932,86.9687576 57.7369227,86.6412955 57.7369227,86.2245909 C57.7369227,85.8078864 57.4025932,85.4703485 56.9880818,85.4703485 C56.5835932,85.4703485 56.2471159,85.8078864 56.2471159,86.2245909 L56.2471159,86.2245909 Z M56.4246614,92.7522424 L57.5593773,92.7522424 L57.5593773,87.9209167 L56.4246614,87.9209167 L56.4246614,92.7522424 Z M55.6844114,87.9209167 L54.4816841,87.9209167 L53.2374341,91.373303 L51.9652636,87.9209167 L50.7016841,87.9209167 L52.6561159,92.7522424 L53.8001386,92.7522424 L55.6844114,87.9209167 Z M45.3925023,91.998 C44.9386159,91.998 44.6923432,91.7007652 44.6923432,91.373303 C44.6923432,90.9760303 44.9779909,90.7781136 45.3330818,90.7183788 L46.5866386,90.5298182 L46.5866386,90.7478864 C46.5866386,91.6914091 46.0346727,91.998 45.3925023,91.998 L45.3925023,91.998 Z M43.5476045,91.4423939 C43.5476045,92.2067121 44.1690136,92.9012197 45.1755818,92.9012197 C45.9552068,92.9012197 46.4291386,92.503947 46.6560818,92.1376212 C46.6560818,92.5240985 46.6954568,92.7227348 46.7047636,92.7522424 L47.7714682,92.7522424 C47.7614455,92.7025833 47.7120477,92.4147045 47.7120477,91.9785682 L47.7120477,89.5776591 C47.7120477,88.6154242 47.1486273,87.7719394 45.6695591,87.7719394 C44.4854455,87.7719394 43.7351727,88.5161061 43.6464,89.3502348 L44.6923432,89.5870152 C44.7417409,89.1012197 45.0775023,88.7147424 45.6795818,88.7147424 C46.3102977,88.7147424 46.5866386,89.0422045 46.5866386,89.4488333 C46.5866386,89.6172424 46.5086045,89.7561439 46.2322636,89.7957273 L44.9973205,89.9842879 C44.1797523,90.1037576 43.5476045,90.580197 43.5476045,91.4423939 L43.5476045,91.4423939 Z M42.3928432,92.7522424 L42.3928432,85.7186439 L40.7849114,85.7186439 L38.5448318,91.0854242 L36.2754,85.7186439 L34.6961045,85.7186439 L34.6961045,92.7522424 L35.85015,92.7522424 L35.85015,87.5934545 L38.0114795,92.7522424 L39.0373773,92.7522424 L41.2180364,87.5740227 L41.2180364,92.7522424 L42.3928432,92.7522424 Z M29.3468318,92.0080758 C29.3468318,92.4542879 29.7026386,92.8119773 30.1465023,92.8119773 C30.5903659,92.8119773 30.9554795,92.4542879 30.9554795,92.0080758 C30.9554795,91.5618636 30.5903659,91.1948182 30.1465023,91.1948182 C29.7026386,91.1948182 29.3468318,91.5618636 29.3468318,92.0080758 L29.3468318,92.0080758 Z M27.5320023,91.0659924 C27.3730705,91.5424318 27.0179795,91.9087576 26.3271273,91.9087576 C25.6169455,91.9087576 25.0442182,91.3826591 25.0148659,90.6492879 L28.5285477,90.6492879 C28.5378545,90.6291364 28.5579,90.470803 28.5579,90.2822424 C28.5579,88.7543258 27.6895023,87.7719394 26.2090023,87.7719394 C24.9962523,87.7719394 23.8708432,88.784553 23.8708432,90.3124697 C23.8708432,91.9483409 25.0256045,92.9012197 26.3271273,92.9012197 C27.4826045,92.9012197 28.2421841,92.2167879 28.4991955,91.373303 L27.5320023,91.0659924 Z M25.0442182,89.805803 C25.085025,89.2905 25.4988205,88.7341742 26.2197409,88.7341742 C27.0086727,88.7341742 27.3838091,89.2401212 27.4031386,89.805803 L25.0442182,89.805803 Z M21.5512977,86.2245909 C21.5512977,86.6412955 21.8863432,86.9687576 22.2915477,86.9687576 C22.7060591,86.9687576 23.0418205,86.6412955 23.0418205,86.2245909 C23.0418205,85.8078864 22.7060591,85.4703485 22.2915477,85.4703485 C21.8863432,85.4703485 21.5512977,85.8078864 21.5512977,86.2245909 L21.5512977,86.2245909 Z M21.7295591,92.7522424 L22.864275,92.7522424 L22.864275,87.9209167 L21.7295591,87.9209167 L21.7295591,92.7522424 Z M20.9885932,87.9209167 L19.7858659,87.9209167 L18.5416159,91.373303 L17.2687295,87.9209167 L16.00515,87.9209167 L17.9602977,92.7522424 L19.1043205,92.7522424 L20.9885932,87.9209167 Z M10.6966841,91.998 C10.2427977,91.998 9.996525,91.7007652 9.996525,91.373303 C9.996525,90.9760303 10.2821727,90.7781136 10.6372636,90.7183788 L11.8908205,90.5298182 L11.8908205,90.7478864 C11.8908205,91.6914091 11.3381386,91.998 10.6966841,91.998 L10.6966841,91.998 Z M8.85107045,91.4423939 C8.85107045,92.2067121 9.47247955,92.9012197 10.4797636,92.9012197 C11.2593886,92.9012197 11.7333205,92.503947 11.9602636,92.1376212 C11.9602636,92.5240985 11.9996386,92.7227348 12.0089455,92.7522424 L13.07565,92.7522424 C13.0656273,92.7025833 13.0162295,92.4147045 13.0162295,91.9785682 L13.0162295,89.5776591 C13.0162295,88.6154242 12.453525,87.7719394 10.9737409,87.7719394 C9.78891136,87.7719394 9.03935455,88.5161061 8.95058182,89.3502348 L9.996525,89.5870152 C10.0452068,89.1012197 10.3809682,88.7147424 10.9830477,88.7147424 C11.6144795,88.7147424 11.8908205,89.0422045 11.8908205,89.4488333 C11.8908205,89.6172424 11.8120705,89.7561439 11.5350136,89.7957273 L10.3022182,89.9842879 C9.48321818,90.1037576 8.85107045,90.580197 8.85107045,91.4423939 L8.85107045,91.4423939 Z M7.697025,92.7522424 L7.697025,85.7186439 L6.08837727,85.7186439 L3.84829773,91.0854242 L1.57886591,85.7186439 L0.000286363636,85.7186439 L0.000286363636,92.7522424 L1.15361591,92.7522424 L1.15361591,87.5934545 L3.31566136,92.7522424 L4.34155909,92.7522424 L6.52221818,87.5740227 L6.52221818,92.7522424 L7.697025,92.7522424 Z" id="Ma-vie.-Ma-ville.-Ma-banque." fill="#1F368B"></path>
                        <g id="cartouche" transform="translate(15.034091, 0.356970)">
                            <path d="M3.10854886,0.362367424 L3.10854886,20.0770265 C4.9226625,15.7840341 7.67390114,11.8616856 11.0744693,8.65399621 C11.0744693,8.65399621 11.2376966,8.48054924 11.234117,8.71804924 C11.2319693,8.84831439 11.0744693,9.01024621 11.0744693,9.01024621 C5.65217386,14.7663826 2.4026625,22.0432386 2.4026625,30.031875 C2.4026625,48.5252083 19.810708,63.5164962 41.2836852,63.5164962 C53.4190602,63.5164962 64.122617,58.698125 71.2530716,51.1952841 C71.2530716,51.1952841 71.3855148,51.0362311 71.4420716,51.1247538 C71.4979125,51.2125568 71.3117761,51.4025568 71.3117761,51.4025568 C64.1670034,59.7150568 52.3860034,65.253125 39.4688557,65.253125 C17.9063898,65.253125 0.688776136,51.1535417 0.688776136,31.6821402 C0.688776136,31.4352841 0.693071591,31.1891477 0.699514773,30.9430114 C0.423889773,32.5213068 0.278560227,34.1283902 0.278560227,35.7549053 C0.278560227,40.4545265 1.28369659,44.8389205 3.10854886,48.7893371 L3.10854886,74.1248295 L91.007867,74.1248295 L91.007867,0.362367424 L3.10854886,0.362367424 Z" id="BG" fill="#1F368B"></path>
                            <path d="M64.8948682,38.3527235 C60.7268455,38.3527235 58.6793455,37.2156023 58.6793455,33.0787841 L58.6793455,18.4646174 L64.0458,18.4646174 L64.0458,36.6621553 L77.5306636,36.6621553 L77.5306636,38.3527235 L64.8948682,38.3527235 Z M27.0272148,38.3527235 L15.9836011,38.3527235 C11.8155784,38.3527235 9.76951023,37.2156023 9.76951023,33.0787841 L9.76951023,18.4646174 L15.1359648,18.4646174 L15.1359648,36.6621553 L25.450067,36.6621553 C25.8216239,37.1493902 26.6306011,38.0382159 27.0272148,38.3527235 Z M27.1043182,28.8575455 C27.1043182,22.4536818 33.0735682,18.0455379 43.351875,18.0455379 C45.1509545,18.0455379 48.1577727,18.3528485 50.4859091,19.0286439 L50.4859091,21.2604242 C48.5400682,20.2600455 45.9155455,19.6886061 43.6310795,19.6886061 C37.0404205,19.6886061 32.7771818,23.2655 32.7771818,28.4142121 C32.7771818,32.7086439 36.7139659,37.1088712 43.6776136,37.1088712 C46.2190909,37.1088712 48.8765455,36.4373939 50.6398295,35.4571667 L50.6398295,37.5802727 C48.4792159,38.3136439 45.336375,38.7706515 42.25725,38.7706515 C33.2962159,38.7706515 27.1043182,34.9857652 27.1043182,28.8575455 Z" id="LCL" fill="#FFD300"></path>
                            <path d="M25.7883341,45.5195379 L25.7883341,46.5508636 L26.6144932,46.5508636 C27.1256523,46.5508636 27.3819477,46.3838939 27.3819477,46.0513939 C27.3819477,45.697303 27.1034591,45.5195379 26.5471977,45.5195379 L25.7883341,45.5195379 Z M26.4054477,45.2050303 C26.9209023,45.2050303 27.1771977,45.0430985 27.1771977,44.7177955 C27.1771977,44.5357121 27.0855614,44.4155227 26.899425,44.3572273 C26.8006295,44.3248409 26.6366864,44.3075682 26.4054477,44.3075682 L25.7883341,44.3075682 L25.7883341,45.2050303 L26.4054477,45.2050303 Z M27.1499932,45.3374545 C27.6948,45.4230985 27.9668455,45.6793106 27.9668455,46.1039318 C27.9668455,46.5033636 27.7169932,46.7473409 27.2180045,46.8358636 C27.0583568,46.8632121 26.8808114,46.8768864 26.6846523,46.8768864 L25.2027205,46.8768864 L25.2027205,43.9765076 L26.4612886,43.9765076 C26.8829591,43.9765076 27.1950955,44.025447 27.3969818,44.1218864 C27.6275045,44.2348788 27.7434818,44.429197 27.7434818,44.7048409 C27.7434818,44.8703712 27.6826295,45.0114318 27.560925,45.1265833 C27.4513909,45.2287803 27.3146523,45.2964318 27.1499932,45.3295379 L27.1499932,45.3374545 Z M29.3748955,45.6769356 L30.6900205,45.6769356 L30.0321,44.341178 L29.3748955,45.6769356 Z M31.2870886,46.8759508 L30.8518159,45.9914432 L29.2095205,45.9914432 L28.7828386,46.8759508 L28.2416114,46.8759508 L29.7264068,43.9770114 L30.4036568,43.9770114 L31.9006227,46.8759508 L31.2870886,46.8759508 Z M34.8092182,46.1900076 C34.8271159,46.2094394 34.8564682,46.2526212 34.8965591,46.3188333 C34.9072977,46.3375455 34.9137409,46.3519394 34.9158886,46.3598561 L34.9158886,43.9769394 L35.4420818,43.9769394 L35.4420818,46.8765985 L34.7447864,46.8765985 L33.0208773,44.6635303 C33.0044114,44.647697 32.9714795,44.6059545 32.92065,44.5397424 C32.9077636,44.5253485 32.8984568,44.5159924 32.8927295,44.5109545 L32.8927295,44.5519773 L32.8927295,44.593 L32.8927295,46.8765985 L32.3830023,46.8765985 L32.3830023,43.9769394 L33.0681273,43.9769394 L34.8092182,46.1900076 Z M36.7283557,45.3915758 C36.7283557,46.1774848 37.0855943,46.5711591 37.7993557,46.5711591 C38.1580261,46.5711591 38.4286398,46.4660833 38.6119125,46.2566515 C38.7873102,46.0551364 38.875367,45.7665379 38.875367,45.3915758 C38.875367,44.6056667 38.5166966,44.2127121 37.7993557,44.2127121 C37.0855943,44.2127121 36.7283557,44.6056667 36.7283557,45.3915758 Z M38.8553216,46.5826742 L39.8346852,46.5459697 L39.8346852,46.8763106 L37.8036511,46.8763106 C37.285333,46.8763106 36.8744011,46.7496439 36.568708,46.4963106 C36.2479807,46.2314621 36.0869011,45.8629773 36.0869011,45.3915758 C36.0869011,44.9259318 36.2479807,44.5588864 36.568708,44.2911591 C36.8744011,44.0399848 37.285333,43.9147576 37.8036511,43.9147576 C38.316242,43.9147576 38.726458,44.0399848 39.0342989,44.2911591 C39.355742,44.5588864 39.5168216,44.9259318 39.5168216,45.3915758 C39.5168216,45.6456288 39.458833,45.8759318 39.3450034,46.0824848 C39.2311739,46.2897576 39.0679466,46.4531288 38.8553216,46.5711591 L38.8553216,46.5826742 Z M41.8515443,46.9307917 C41.3439648,46.9307917 40.972408,46.8365114 40.736158,46.6472311 C40.499908,46.4586705 40.381783,46.1499205 40.381783,45.7224205 L40.381783,43.9771553 L40.9673966,43.9771553 L40.9673966,45.6648447 C40.9673966,46.0153371 41.0225216,46.2564356 41.1334875,46.3888598 C41.2609193,46.5457538 41.500033,46.6249205 41.8515443,46.6249205 C42.2052034,46.6249205 42.4471807,46.5457538 42.5774761,46.3888598 C42.6877261,46.2542765 42.743567,46.0124583 42.743567,45.6648447 L42.743567,43.9771553 L43.3284648,43.9771553 L43.3284648,45.7224205 C43.3284648,46.1808674 43.1867148,46.5047311 42.9032148,46.6954508 C42.6691125,46.8523447 42.318317,46.9307917 41.8515443,46.9307917 Z M44.6592682,46.5505758 L46.3595523,46.5505758 L46.3595523,46.8765985 L44.0736545,46.8765985 L44.0736545,43.9769394 L46.3044273,43.9769394 L46.3044273,44.308 L44.6592682,44.308 L44.6592682,45.1932273 L46.212075,45.1932273 L46.212075,45.5163712 L44.6592682,45.5163712 L44.6592682,46.5505758 Z M49.1623364,46.5505758 L50.8626205,46.5505758 L50.8626205,46.8765985 L48.5767227,46.8765985 L48.5767227,43.9769394 L50.8067795,43.9769394 L50.8067795,44.308 L49.1623364,44.308 L49.1623364,45.1932273 L50.7151432,45.1932273 L50.7151432,45.5163712 L49.1623364,45.5163712 L49.1623364,46.5505758 Z M54.0541432,43.9767955 L54.0541432,44.3078561 L52.9552227,44.3078561 L52.9552227,46.8764545 L52.3688932,46.8764545 L52.3688932,44.3078561 L51.2785636,44.3078561 L51.2785636,43.9767955 L54.0541432,43.9767955 Z M56.5235284,45.6769356 L57.8386534,45.6769356 L57.180733,44.341178 L56.5235284,45.6769356 Z M58.4357216,46.8759508 L58.0011648,45.9914432 L56.3581534,45.9914432 L55.9314716,46.8759508 L55.3909602,46.8759508 L56.8757557,43.9770114 L57.5522898,43.9770114 L59.0499716,46.8759508 L58.4357216,46.8759508 Z M60.786767,43.9146136 C61.0280284,43.9146136 61.3043693,43.9426818 61.6150739,43.9973788 C61.7074261,44.0139318 61.7911875,44.0326439 61.865642,44.0513561 L61.865642,44.4155227 C61.4754716,44.2830985 61.1196648,44.2161667 60.7989375,44.2161667 C60.2884943,44.2161667 60.0336307,44.3313182 60.0336307,44.5594621 C60.0336307,44.6868485 60.1374375,44.8055985 60.3443352,44.9164318 C60.4059034,44.9495379 60.6335625,45.0459773 61.0294602,45.2050303 C61.3451761,45.3352955 61.574267,45.4554848 61.7145852,45.5648788 C61.921483,45.7311288 62.0245739,45.9175303 62.0245739,46.1240833 C62.0245739,46.5573409 61.7453693,46.8149924 61.1855284,46.8984773 C61.023017,46.9193485 60.8526307,46.9308636 60.6750852,46.9308636 C60.3808466,46.9308636 60.038642,46.8970379 59.6513352,46.8272273 C59.542517,46.8077955 59.4430057,46.7890833 59.3528011,46.7696515 L59.3528011,46.3687803 C59.7980966,46.5386288 60.2491193,46.6249924 60.7030057,46.6249924 C61.0559489,46.6249924 61.291483,46.5530227 61.4074602,46.409803 C61.4504148,46.3572652 61.4711761,46.2903333 61.4711761,46.2111667 C61.4711761,46.0650682 61.3680852,45.9340833 61.1604716,45.8174924 C61.054517,45.7599167 60.8254261,45.6649167 60.471767,45.5324924 C60.1560511,45.4166212 59.9269602,45.3036288 59.7830625,45.1935152 C59.5733011,45.0395 59.4680625,44.8574167 59.4680625,44.6479848 C59.4680625,44.3601061 59.6320057,44.1564318 59.9584602,44.034803 C60.1753807,43.9549167 60.4517216,43.9146136 60.786767,43.9146136 Z M63.9566693,43.9146136 C64.1979307,43.9146136 64.4749875,43.9426818 64.7849761,43.9973788 C64.8780443,44.0139318 64.9618057,44.0326439 65.0362602,44.0513561 L65.0362602,44.4155227 C64.6453739,44.2830985 64.290283,44.2161667 63.9688398,44.2161667 C63.4591125,44.2161667 63.2042489,44.3313182 63.2042489,44.5594621 C63.2042489,44.6868485 63.3080557,44.8055985 63.5149534,44.9164318 C63.5758057,44.9495379 63.8041807,45.0459773 64.2000784,45.2050303 C64.5150784,45.3352955 64.7441693,45.4554848 64.8844875,45.5648788 C65.0913852,45.7311288 65.1944761,45.9175303 65.1944761,46.1240833 C65.1944761,46.5573409 64.9152716,46.8149924 64.3554307,46.8984773 C64.1929193,46.9193485 64.0232489,46.9308636 63.8457034,46.9308636 C63.5507489,46.9308636 63.2092602,46.8970379 62.8212375,46.8272273 C62.7124193,46.8077955 62.6136239,46.7890833 62.5227034,46.7696515 L62.5227034,46.3687803 C62.9687148,46.5386288 63.4190216,46.6249924 63.872908,46.6249924 C64.2258511,46.6249924 64.4606693,46.5530227 64.5780784,46.409803 C64.620317,46.3572652 64.6417943,46.2903333 64.6417943,46.2111667 C64.6417943,46.0650682 64.5379875,45.9340833 64.3303739,45.8174924 C64.2251352,45.7599167 63.9953284,45.6649167 63.6423852,45.5324924 C63.3259534,45.4166212 63.0968625,45.3036288 62.9529648,45.1935152 C62.7439193,45.0395 62.6379648,44.8574167 62.6379648,44.6479848 C62.6379648,44.3601061 62.801908,44.1564318 63.1283625,44.034803 C63.345283,43.9549167 63.6223398,43.9146136 63.9566693,43.9146136 Z M67.3495057,46.9307917 C66.842642,46.9307917 66.4703693,46.8365114 66.2341193,46.6472311 C65.9978693,46.4586705 65.8797443,46.1499205 65.8797443,45.7224205 L65.8797443,43.9771553 L66.465358,43.9771553 L66.465358,45.6648447 C66.465358,46.0153371 66.5211989,46.2564356 66.6321648,46.3888598 C66.7588807,46.5457538 66.9979943,46.6249205 67.3495057,46.6249205 C67.7038807,46.6249205 67.945858,46.5457538 68.0754375,46.3888598 C68.1856875,46.2542765 68.2415284,46.0124583 68.2415284,45.6648447 L68.2415284,43.9771553 L68.827142,43.9771553 L68.827142,45.7224205 C68.827142,46.1808674 68.6846761,46.5047311 68.4011761,46.6954508 C68.1677898,46.8523447 67.8169943,46.9307917 67.3495057,46.9307917 Z M70.9276909,45.239072 C71.4367023,45.239072 71.6901341,45.0757008 71.6901341,44.7503977 C71.6901341,44.5855871 71.6307136,44.4682765 71.5111568,44.3991856 C71.3980432,44.3387311 71.2033159,44.3077841 70.9276909,44.3077841 L70.1931682,44.3077841 L70.1931682,45.239072 L70.9276909,45.239072 Z M71.5111568,45.4945644 C71.6972932,45.5283902 71.8354636,45.5845265 71.9256682,45.6651326 C72.0158727,45.7442992 72.0917591,45.8745644 72.1526114,46.0537689 L72.4346795,46.8763826 L71.8433386,46.8763826 L71.6149636,46.198428 C71.5397932,45.9810795 71.4417136,45.8198674 71.3171455,45.7162311 C71.1925773,45.6140341 71.0186114,45.5607765 70.7966795,45.5607765 L70.1931682,45.5607765 L70.1931682,46.8763826 L69.6075545,46.8763826 L69.6075545,43.9767235 L71.0093045,43.9767235 C71.4238159,43.9767235 71.7330886,44.027822 71.9378386,44.1300189 C72.1705091,44.2487689 72.2879182,44.4445265 72.2879182,44.7172917 C72.2879182,44.9296023 72.2077364,45.1073674 72.0488045,45.2513068 C71.8998955,45.3830114 71.7202023,45.4578598 71.5111568,45.4736932 L71.5111568,45.4945644 Z M73.8472398,45.6769356 L75.1630807,45.6769356 L74.5051602,44.341178 L73.8472398,45.6769356 Z M75.7601489,46.8759508 L75.3248761,45.9914432 L73.6825807,45.9914432 L73.2558989,46.8759508 L72.7146716,46.8759508 L74.199467,43.9770114 L74.8760011,43.9770114 L76.373683,46.8759508 L75.7601489,46.8759508 Z M79.2815625,46.1900076 C79.2994602,46.2094394 79.3288125,46.2526212 79.3689034,46.3188333 C79.379642,46.3375455 79.3860852,46.3519394 79.388233,46.3598561 L79.388233,43.9769394 L79.915142,43.9769394 L79.915142,46.8765985 L79.2178466,46.8765985 L77.4932216,44.6635303 C77.4767557,44.647697 77.4445398,44.6059545 77.3937102,44.5397424 C77.380108,44.5253485 77.3708011,44.5159924 77.3657898,44.5109545 L77.3657898,44.5519773 L77.3657898,44.593 L77.3657898,46.8765985 L76.8553466,46.8765985 L76.8553466,43.9769394 L77.5404716,43.9769394 L79.2815625,46.1900076 Z M83.4197318,44.4157386 C83.1978,44.2804356 82.9042773,44.2127841 82.5377318,44.2127841 C82.1117659,44.2127841 81.7867432,44.3243371 81.5619477,44.5452841 C81.3371523,44.7676705 81.2247545,45.0605871 81.2247545,45.4247538 C81.2247545,45.794678 81.3393,46.086875 81.5683909,46.3027841 C81.7967659,46.5165341 82.1089023,46.6252083 82.5062318,46.6252083 C82.7847205,46.6252083 83.0388682,46.5863447 83.2672432,46.5086174 C83.33955,46.4841477 83.4032659,46.4546402 83.4591068,46.4222538 L83.4591068,46.7569129 C83.111175,46.8727841 82.748925,46.9310795 82.3716409,46.9310795 C81.82755,46.9310795 81.3958568,46.8051326 81.0779932,46.5539583 C80.748675,46.2984659 80.5833,45.937178 80.5833,45.4700947 C80.5833,45.1174432 80.6892545,44.8130114 80.8983,44.5560795 C81.0923114,44.3164205 81.3564818,44.1415341 81.6908114,44.0307008 C81.92205,43.9529735 82.1812091,43.9148295 82.4675727,43.9148295 C82.8384136,43.9148295 83.1569932,43.9608902 83.4197318,44.051572 L83.4197318,44.4157386 Z M84.6578966,46.5505758 L86.3581807,46.5505758 L86.3581807,46.8765985 L84.0729989,46.8765985 L84.0729989,43.9769394 L86.3030557,43.9769394 L86.3030557,44.308 L84.6578966,44.308 L84.6578966,45.1932273 L86.2107034,45.1932273 L86.2107034,45.5163712 L84.6578966,45.5163712 L84.6578966,46.5505758 Z" id="Banque-et-Assurance" fill="#FEFEFE"></path>
                        </g>
                    </g>
                </g>
            </g>
        </g>
    </g>
</svg>